<svg width="36" height="36" viewBox="0 0 36 36" fill="none" xmlns="http://www.w3.org/2000/svg">
<path d="M32.0237 24.6526H23.9345C23.9151 24.733 23.9037 25.5196 23.9037 25.606C23.9037 26.1944 24.3808 26.6715 24.9692 26.6715H26.9136V29.4702H26.0919C25.5034 29.4702 25.0264 29.9473 25.0264 30.5357C25.0264 31.1242 25.5034 31.6012 26.0919 31.6012H26.9136V31.9195C26.9136 32.508 27.3906 32.985 27.9791 32.985C28.5675 32.985 29.0446 32.508 29.0446 31.9195V31.6012H29.8663C30.4547 31.6012 30.9318 31.1242 30.9318 30.5357C30.9318 29.9473 30.4547 29.4702 29.8663 29.4702H29.0446V26.6715H30.9889C31.5774 26.6715 32.0545 26.1944 32.0545 25.606C32.0545 25.5195 32.0431 24.733 32.0237 24.6526Z" fill="white"/>
<path d="M27.9791 3.01501C24.5842 3.01501 21.8223 5.77696 21.8223 9.17186C21.8223 11.4805 23.0998 13.4961 24.9849 14.5498H30.9734C32.8584 13.4961 34.136 11.4805 34.136 9.17186C34.136 5.77696 31.374 3.01501 27.9791 3.01501Z" fill="white"/>
<path d="M34.9345 16.6808H21.0236C20.4352 16.6808 19.9581 17.1579 19.9581 17.7463V21.4669C19.9581 22.0494 20.4303 22.5216 21.0128 22.5216H34.9453C35.5278 22.5216 36 22.0494 36 21.4669V17.7463C36 17.1579 35.5229 16.6808 34.9345 16.6808Z" fill="white"/>
<path d="M12.0656 24.6526H3.97635C3.95695 24.733 3.94556 25.5196 3.94556 25.606C3.94556 26.1944 4.42263 26.6715 5.01107 26.6715H6.95542V29.4702H6.13375C5.54531 29.4702 5.06824 29.9473 5.06824 30.5357C5.06824 31.1242 5.54531 31.6012 6.13375 31.6012H6.95542V31.9195C6.95542 32.508 7.43249 32.985 8.02094 32.985C8.60938 32.985 9.08646 32.508 9.08646 31.9195V31.6012H9.90813C10.4966 31.6012 10.9736 31.1242 10.9736 30.5357C10.9736 29.9473 10.4966 29.4702 9.90813 29.4702H9.08652V26.6715H11.0309C11.6193 26.6715 12.0964 26.1944 12.0964 25.606C12.0964 25.5195 12.085 24.733 12.0656 24.6526Z" fill="white"/>
<path d="M8.02086 3.01501C4.62596 3.01501 1.86401 5.77696 1.86401 9.17186C1.86401 11.4805 3.14152 13.4961 5.0266 14.5498H11.0152C12.9002 13.4961 14.1777 11.4805 14.1777 9.17186C14.1777 5.77696 11.4158 3.01501 8.02086 3.01501Z" fill="white"/>
<path d="M14.9763 16.6808H1.06552C0.47707 16.6808 0 17.1579 0 17.7463V21.4669C0 22.0494 0.472219 22.5216 1.05469 22.5216H14.9872C15.5696 22.5216 16.0419 22.0494 16.0419 21.4669V17.7463C16.0419 17.1579 15.5648 16.6808 14.9763 16.6808Z" fill="white"/>
</svg>
