<svg width="36" height="36" viewBox="0 0 36 36" fill="none" xmlns="http://www.w3.org/2000/svg">
<path d="M12 13.5C11.1716 13.5 10.5 14.1716 10.5 15V21C10.5 21.8284 11.1716 22.4999 12 22.4999H24C24.8284 22.4999 25.5 21.8284 25.5 21V15C25.5 14.1716 24.8284 13.5 24 13.5H12Z" fill="white"/>
<path d="M21.0001 10.4999H33.0001C33.8285 10.4999 34.5001 9.82837 34.5001 8.99995V2.99998C34.5001 2.17155 33.8285 1.5 33.0001 1.5H21.0001C20.1717 1.5 19.5001 2.17155 19.5001 2.99998V8.99995C19.5001 9.82837 20.1717 10.4999 21.0001 10.4999Z" fill="white"/>
<path d="M2.99998 10.4999H15C15.8284 10.4999 16.5 9.82837 16.5 8.99995V2.99998C16.5 2.17155 15.8284 1.5 15 1.5H2.99998C2.17155 1.5 1.5 2.17155 1.5 2.99998V8.99995C1.49993 9.82837 2.17155 10.4999 2.99998 10.4999Z" fill="white"/>
<path d="M33 25.5H21.0001C20.1717 25.5 19.5001 26.1716 19.5001 27V33C19.5001 33.8284 20.1717 34.4999 21.0001 34.4999H33.0001C33.8285 34.4999 34.5001 33.8284 34.5001 33V27C34.5001 26.1716 33.8285 25.5 33 25.5Z" fill="white"/>
<path d="M14.9999 25.5H2.99998C2.17155 25.5 1.5 26.1716 1.5 27V33C1.5 33.8284 2.17155 34.4999 2.99998 34.4999H15C15.8284 34.4999 16.5 33.8284 16.5 33V27C16.5 26.1716 15.8284 25.5 14.9999 25.5Z" fill="white"/>
<path d="M30.0001 13.5C29.1717 13.5 28.5001 14.1716 28.5001 15V21C28.5001 21.8284 29.1717 22.4999 30.0001 22.4999H36.0001V13.5H30.0001Z" fill="white"/>
<path d="M7.50002 21V15C7.50002 14.1716 6.82847 13.5 6.00005 13.5H0V22.5H5.99998C6.8284 22.4999 7.50002 21.8284 7.50002 21Z" fill="white"/>
</svg>
