<svg width="36" height="36" viewBox="0 0 36 36" fill="none" xmlns="http://www.w3.org/2000/svg">
<g clip-path="url(#clip0_1_655)">
<path d="M18 0C8.05997 0 0 8.05997 0 18C0 27.94 8.05997 36 18 36C19.66 36 21 34.66 21 33C21 32.22 20.71 31.52 20.22 30.99C19.75 30.46 19.47 29.77 19.47 29C19.47 27.3399 20.81 26 22.47 26H26C31.52 26 36 21.5199 36 15.9999C36 7.15997 27.94 0 18 0ZM7.00003 18C5.34 18 4.00003 16.66 4.00003 15C4.00003 13.34 5.34 12 7.00003 12C8.66006 12 10 13.34 10 15C10 16.66 8.65997 18 7.00003 18ZM13 10C11.34 10 10 8.66006 10 7.00003C10 5.34 11.34 4.00003 13 4.00003C14.6601 4.00003 16 5.34 16 7.00003C16 8.66006 14.66 10 13 10ZM23 10C21.3399 10 20 8.66006 20 7.00003C20 5.34 21.3399 4.00003 23 4.00003C24.66 4.00003 26 5.34 26 7.00003C26 8.66006 24.66 10 23 10ZM29 18C27.3399 18 26 16.66 26 15C26 13.34 27.3399 12 29 12C30.66 12 32 13.34 32 15C32 16.66 30.66 18 29 18Z" fill="white"/>
</g>
<defs>
<clipPath id="clip0_1_655">
<rect width="36" height="36" fill="white"/>
</clipPath>
</defs>
</svg>
