<svg width="36" height="36" viewBox="0 0 36 36" fill="none" xmlns="http://www.w3.org/2000/svg">
<path d="M29.0829 13.8803C29.0175 13.7648 28.9226 13.6688 28.808 13.602C28.6934 13.5352 28.5631 13.5 28.4304 13.5H18.6054L20.2526 0.914452C20.2702 0.746014 20.2307 0.576529 20.1404 0.433285C20.05 0.290041 19.9141 0.181374 19.7544 0.124781C19.5948 0.068187 19.4208 0.0669597 19.2604 0.121296C19.1 0.175633 18.9625 0.282372 18.8701 0.424327L6.92189 21.3572C6.85202 21.4708 6.81372 21.6011 6.81095 21.7344C6.80818 21.8678 6.84104 21.9995 6.90613 22.116C6.97122 22.2324 7.06619 22.3294 7.18125 22.3969C7.29631 22.4644 7.4273 22.5 7.5607 22.5H17.2389L15.9335 35.1045C15.9207 35.2724 15.9644 35.4397 16.0576 35.5799C16.1508 35.72 16.2883 35.825 16.448 35.8781C16.6078 35.9311 16.7807 35.9292 16.9393 35.8727C17.0978 35.8161 17.2329 35.7081 17.3231 35.5659L29.0739 14.6353C29.142 14.5215 29.1788 14.3917 29.1803 14.259C29.1819 14.1264 29.1483 13.9957 29.0829 13.8803Z" fill="white"/>
</svg>
