<svg width="36" height="36" viewBox="0 0 36 36" fill="none" xmlns="http://www.w3.org/2000/svg">
<path d="M14.694 30.4897C14.648 30.3673 14.6321 30.2632 14.6477 30.179C14.6632 30.0954 14.6098 30.0261 14.4871 29.9727C14.3645 29.9193 14.3033 29.8769 14.3033 29.8467C14.3033 29.8161 14.2154 29.793 14.0392 29.7779C13.8631 29.7625 13.7752 29.7547 13.7752 29.7547H13.4769H13.2244H6.6121C5.60192 29.7547 4.73705 29.3954 4.01757 28.6755C3.29825 27.9561 2.93863 27.0915 2.93863 26.0814V9.91805C2.93863 8.90787 3.29817 8.04332 4.01757 7.32392C4.73705 6.60444 5.60192 6.24458 6.6121 6.24458H13.959C14.158 6.24458 14.3145 6.19521 14.4295 6.09549C14.5441 5.99602 14.6205 5.84669 14.659 5.64774C14.6972 5.44879 14.7203 5.26914 14.728 5.10839C14.7356 4.9478 14.7319 4.74483 14.7165 4.49996C14.7013 4.25518 14.6936 4.10215 14.6936 4.04063C14.6936 3.84168 14.6209 3.66983 14.4755 3.52412C14.3301 3.37905 14.158 3.30627 13.959 3.30627H6.6121C4.79084 3.30627 3.23335 3.95298 1.93987 5.2463C0.646703 6.53963 0 8.09688 0 9.91829V26.0814C0 27.9026 0.646703 29.4603 1.93987 30.7531C3.23335 32.0471 4.79084 32.6938 6.6121 32.6938H13.9593C14.1583 32.6938 14.3149 32.6438 14.4299 32.5447C14.5445 32.445 14.6209 32.2959 14.6593 32.0967C14.6976 31.898 14.7206 31.7174 14.7284 31.5573C14.7359 31.3966 14.7322 31.194 14.7168 30.9492C14.7014 30.7041 14.694 30.5511 14.694 30.4897Z" fill="white"/>
<path d="M35.5637 16.9668L23.074 4.4767C22.7834 4.18624 22.4389 4.04053 22.0409 4.04053C21.6429 4.04053 21.2984 4.18624 21.0075 4.4767C20.7166 4.76757 20.5713 5.11231 20.5713 5.51004V12.1223H10.2857C9.88746 12.1223 9.5432 12.268 9.25234 12.5585C8.96147 12.8493 8.81616 13.1938 8.81616 13.5918V22.4083C8.81616 22.8062 8.96147 23.1507 9.25234 23.4414C9.54352 23.7317 9.8877 23.8778 10.2857 23.8778H20.5714V30.49C20.5714 30.8876 20.7167 31.2324 21.0076 31.5231C21.2984 31.8139 21.6429 31.9596 22.041 31.9596C22.4389 31.9596 22.7834 31.8139 23.0741 31.5231L35.5637 19.0335C35.8546 18.7424 36 18.3984 36 18.0004C36 17.6025 35.8546 17.2576 35.5637 16.9668Z" fill="white"/>
</svg>
