<svg width="36" height="36" viewBox="0 0 36 36" fill="none" xmlns="http://www.w3.org/2000/svg">
<g clip-path="url(#clip0_1_696)">
<path d="M21.9653 14.032C21.5389 13.603 21.0661 13.2228 20.5556 12.8982C19.2036 12.0324 17.6319 11.5724 16.0264 11.5724C13.7981 11.5683 11.6604 12.4536 10.0875 14.032L2.45686 21.6686C0.886638 23.2418 0.00409328 25.3734 0.00268729 27.5962C-0.000265309 32.2345 3.7574 35.9971 8.39579 36C10.6206 36.0078 12.7564 35.1266 14.3287 33.5525L20.6276 27.2536C20.7421 27.1401 20.806 26.9853 20.805 26.8242C20.8032 26.4929 20.533 26.2259 20.2017 26.2278H19.9617C18.6457 26.2324 17.3414 25.9797 16.1224 25.4839C15.8978 25.3915 15.6397 25.4436 15.4686 25.6159L10.9394 30.1511C9.53296 31.5575 7.25271 31.5575 5.84629 30.1511C4.43987 28.7446 4.43987 26.4644 5.84629 25.058L13.5069 17.4034C14.9122 15.9998 17.1888 15.9998 18.594 17.4034C19.5411 18.2947 21.0184 18.2947 21.9654 17.4034C22.3729 16.9956 22.6199 16.4547 22.6613 15.8796C22.7051 15.1924 22.4517 14.5194 21.9653 14.032Z" fill="white"/>
<path d="M33.5373 2.45999C30.2573 -0.819995 24.9394 -0.819995 21.6594 2.45999L15.3665 8.74683C15.1937 8.92047 15.1439 9.18164 15.2406 9.40674C15.3361 9.63247 15.5594 9.77736 15.8044 9.77265H16.0264C17.3408 9.77026 18.643 10.025 19.8597 10.5225C20.0843 10.615 20.3424 10.5628 20.5135 10.3906L25.0307 5.87937C26.4371 4.47295 28.7174 4.47295 30.1238 5.87937C31.5302 7.28579 31.5302 9.56604 30.1238 10.9725L24.4968 16.5934L24.4488 16.6474L22.4812 18.6031C21.0759 20.0066 18.7993 20.0066 17.394 18.6031C16.447 17.7118 14.9697 17.7118 14.0227 18.6031C13.6126 19.014 13.3654 19.5596 13.3268 20.1388C13.2829 20.826 13.5363 21.499 14.0227 21.9865C14.717 22.6838 15.5294 23.2524 16.4222 23.6662C16.5482 23.7261 16.6742 23.7741 16.8002 23.8281C16.9261 23.8821 17.0581 23.9241 17.1841 23.9721C17.31 24.0201 17.442 24.0621 17.568 24.0981L17.9219 24.194C18.1619 24.254 18.4019 24.302 18.6478 24.344C18.944 24.388 19.2424 24.416 19.5416 24.428H19.9615H19.9975L20.3575 24.386C20.4894 24.3801 20.6274 24.35 20.7834 24.35H20.9874L21.4013 24.2901L21.5933 24.2541L21.9412 24.1821H22.0072C23.4808 23.812 24.8263 23.049 25.9005 21.9745L33.5371 14.3379C36.8173 11.0579 36.8173 5.73997 33.5373 2.45999Z" fill="white"/>
</g>
<defs>
<clipPath id="clip0_1_696">
<rect width="36" height="36" fill="white"/>
</clipPath>
</defs>
</svg>
