<svg width="36" height="36" viewBox="0 0 36 36" fill="none" xmlns="http://www.w3.org/2000/svg">
<g clip-path="url(#clip0_1_718)">
<path d="M9.82313 22.3165C10.7456 23.0979 11.3573 24.1565 11.5783 25.3122H16.9452V17.7955C15.1276 17.326 13.781 15.6724 13.781 13.7101H15.8905C15.8905 14.8732 16.8368 15.8195 17.9999 15.8195C19.1631 15.8195 20.1094 14.8732 20.1094 13.7101H22.2189C22.2189 15.6723 20.8723 17.326 19.0547 17.7955V25.3121H24.4228C24.6462 24.1568 25.2637 23.0928 26.1949 22.301C29.0304 19.8899 30.6567 16.3742 30.6567 12.6554C30.6567 1.30985 16.82 -4.262 8.94025 3.83312C3.79767 9.11646 4.23729 17.5847 9.82313 22.3165Z" fill="white"/>
<path d="M17.9999 36.0001C20.3262 36.0001 22.2188 34.1075 22.2188 31.7811H13.781C13.781 34.1075 15.6736 36.0001 17.9999 36.0001Z" fill="white"/>
<path d="M11.6716 27.4215H24.3284V29.6716H11.6716V27.4215Z" fill="white"/>
</g>
<defs>
<clipPath id="clip0_1_718">
<rect width="36" height="36" fill="white"/>
</clipPath>
</defs>
</svg>
