<svg width="36" height="36" viewBox="0 0 36 36" fill="none" xmlns="http://www.w3.org/2000/svg">
<g clip-path="url(#clip0_1_723)">
<path d="M20.1797 0C19.5967 0 19.125 0.471727 19.125 1.05469V15.8906C19.125 16.4736 19.5967 16.9453 20.1797 16.9453H34.9453C35.5283 16.9453 36 16.4736 36 15.8906C36 7.16681 28.9035 0 20.1797 0Z" fill="white"/>
<path d="M22.1335 33.6352L17.0156 19.9178V5.34375C17.0156 4.76079 16.5439 4.28906 15.9609 4.28906C7.23712 4.28906 0 11.3856 0 20.1094C0 28.8332 7.23712 36 15.9609 36C17.8705 36 19.7399 35.6612 21.5166 34.9937C22.0615 34.7887 22.3375 34.181 22.1335 33.6352Z" fill="white"/>
<path d="M34.9453 19.0547H20.1797C19.8336 19.0547 19.5102 19.2246 19.3124 19.5089C19.1157 19.7932 19.0704 20.1557 19.1919 20.4801L24.3767 34.3768C24.4756 34.6384 24.6734 34.8505 24.9288 34.9659C25.1844 35.0821 25.4724 35.092 25.7363 34.9927C31.875 32.6824 36 26.66 36 20.1094C36 19.5264 35.5282 19.0547 34.9453 19.0547Z" fill="white"/>
</g>
<defs>
<clipPath id="clip0_1_723">
<rect width="36" height="36" fill="white"/>
</clipPath>
</defs>
</svg>
