<svg width="36" height="36" viewBox="0 0 36 36" fill="none" xmlns="http://www.w3.org/2000/svg">
<g clip-path="url(#clip0_1_748)">
<path d="M9.48856 14.4607L12.2823 17.2543L17.2542 12.2824L14.4605 9.48879C15.2306 6.90614 14.5369 4.09624 12.6031 2.16243C10.6117 0.170973 7.71057 -0.508105 5.03201 0.390067C4.70766 0.498841 4.45622 0.758153 4.35751 1.08574C4.25879 1.41325 4.32509 1.7684 4.53533 2.03826L7.46947 5.80441L5.80419 7.46976L2.03804 4.53548C1.76818 4.32518 1.41303 4.25894 1.08558 4.35766C0.757998 4.45638 0.498685 4.70775 0.389912 5.03217C-0.5084 7.71079 0.170678 10.6118 2.16221 12.6033C4.09601 14.5371 6.90591 15.2309 9.48856 14.4607Z" fill="white"/>
<path d="M26.5114 21.5395L23.7177 18.7458L18.7458 23.7176L21.5395 26.5113C20.7694 29.094 21.4631 31.9039 23.3969 33.8377C24.8071 35.248 26.6732 36.0001 28.5937 36C29.3853 36 30.1862 35.8722 30.968 35.61C31.2923 35.5012 31.5438 35.2419 31.6425 34.9143C31.7412 34.5868 31.6749 34.2317 31.4647 33.9618L28.5305 30.1957L30.1958 28.5304L33.962 31.4645C34.2318 31.6747 34.5868 31.7409 34.9144 31.6424C35.242 31.5436 35.5013 31.2923 35.6101 30.9678C36.5084 28.2892 35.8293 25.3882 33.8378 23.3967C31.9039 21.463 29.0941 20.7694 26.5114 21.5395Z" fill="white"/>
<path d="M9.72881 22.7909C9.31692 22.379 8.64916 22.379 8.23727 22.7909L1.02806 30.0001C-0.342686 31.3708 -0.342686 33.6012 1.02806 34.9719C2.3988 36.3427 4.62918 36.3427 5.99992 34.9719L13.2091 27.7627C13.621 27.3508 13.621 26.6831 13.2091 26.2712L9.72881 22.7909Z" fill="white"/>
<path d="M27.8226 17.1268C28.2874 17.5915 28.9054 17.8476 29.5628 17.8476C30.2201 17.8476 30.8381 17.5915 31.3029 17.1268L35.2804 13.1492C36.2399 12.1898 36.2399 10.6285 35.2804 9.66899L26.3311 0.719613C25.3716 -0.239871 23.8104 -0.239871 22.8507 0.719613L18.8733 4.69712C17.9138 5.65661 17.9138 7.2179 18.8733 8.17738L27.8226 17.1268Z" fill="white"/>
<path d="M20.1163 12.4034L11.2203 21.2993L11.2205 21.2995L14.7006 24.7796L23.5965 15.8837L20.1163 12.4034Z" fill="white"/>
</g>
<defs>
<clipPath id="clip0_1_748">
<rect width="36" height="36" fill="white"/>
</clipPath>
</defs>
</svg>
