<svg width="36" height="36" viewBox="0 0 36 36" fill="none" xmlns="http://www.w3.org/2000/svg">
<path d="M30.8537 0C30.3014 0 29.8537 0.447715 29.8537 1V1.19509C29.8537 1.74737 29.4059 2.19509 28.8537 2.19509H7.14639C6.59411 2.19509 6.14639 1.74737 6.14639 1.19509V1C6.14639 0.447715 5.69868 0 5.14639 0H4.51221C3.95992 0 3.51221 0.447715 3.51221 1V35C3.51221 35.5523 3.95992 36 4.51221 36H5.14632C5.69861 36 6.14632 35.5523 6.14632 35V34.8049C6.14632 34.2526 6.59404 33.8049 7.14632 33.8049H28.8537C29.4059 33.8049 29.8537 34.2526 29.8537 34.8049V35C29.8537 35.5523 30.3014 36 30.8537 36H31.4878C32.0401 36 32.4878 35.5523 32.4878 35V1C32.4878 0.447716 32.0401 0 31.4878 0H30.8537ZM29.8537 25.0244H7.14639C6.59411 25.0244 6.14639 24.5766 6.14639 24.0244V23.3902C6.14639 22.838 6.59411 22.3902 7.14639 22.3902H28.8537C29.406 22.3902 29.8537 22.838 29.8537 23.3902V25.0243C29.8537 25.0243 29.8537 25.0244 29.8537 25.0244ZM29.8537 13.6098H7.14639C6.59411 13.6098 6.14639 13.162 6.14639 12.6098V11.9756C6.14639 11.4234 6.59411 10.9756 7.14639 10.9756H28.8537C29.406 10.9756 29.8537 11.4234 29.8537 11.9756V13.6097C29.8537 13.6097 29.8537 13.6098 29.8537 13.6098Z" fill="white"/>
</svg>
