<svg width="36" height="36" viewBox="0 0 36 36" fill="none" xmlns="http://www.w3.org/2000/svg">
<g clip-path="url(#clip0_1_774)">
<path d="M18 19.3034C18.7199 19.3034 19.3034 18.7199 19.3034 18C19.3034 17.2802 18.7199 16.6967 18 16.6967C17.2802 16.6967 16.6967 17.2802 16.6967 18C16.6967 18.7199 17.2802 19.3034 18 19.3034Z" fill="white"/>
<path d="M35.6311 13.2757L35.2622 11.8988L32.7819 12.5634C32.8294 12.3694 32.871 12.1757 32.9066 11.983C33.4053 9.28253 32.7137 6.90008 30.9068 5.0931L29.8989 4.08519L28.0832 5.90087C28.0273 5.709 27.9665 5.52048 27.901 5.33581C26.9826 2.7478 25.1925 1.0303 22.7243 0.368911L21.3474 0L20.6828 2.48028C20.5385 2.34202 20.3915 2.20919 20.2424 2.08199C18.153 0.299963 15.744 -0.292405 13.2757 0.368911L11.8988 0.737822L12.5629 3.21639C11.3484 2.91942 9.86456 2.78416 8.34414 3.19157C7.12097 3.51934 6.02714 4.15913 5.09303 5.09317L4.08526 6.10108L5.90087 7.91669C3.82216 8.52125 1.26217 9.94221 0.368911 13.2757L0 14.6526L2.48028 15.3172C2.34209 15.4615 2.20919 15.6084 2.08199 15.7576C0.299963 17.847 -0.292405 20.256 0.368911 22.7243L0.737822 24.1012L3.2181 23.4366C3.17061 23.6306 3.12897 23.8243 3.09339 24.0171C2.59478 26.7175 3.28626 29.1 5.09317 30.907L6.10108 31.9149L7.91676 30.0992C7.97266 30.2911 8.03348 30.4796 8.09901 30.6643C9.01743 33.2523 10.8075 34.9698 13.2757 35.6312L14.6526 36.0001L15.3172 33.5198C15.4615 33.6581 15.6085 33.791 15.7576 33.9181C17.847 35.7001 20.256 36.2925 22.7243 35.6312L24.1012 35.2622L23.4371 32.7838C24.6516 33.0807 26.1353 33.2159 27.6558 32.8085C28.879 32.4807 29.9728 31.8409 30.9069 30.9069L31.9148 29.899L30.0993 28.0834C32.1778 27.4786 34.738 26.0576 35.6312 22.7244L36.0001 21.3475L33.5198 20.6829C33.6581 20.5386 33.7909 20.3917 33.9181 20.2426C35.7001 18.153 36.2925 15.744 35.6311 13.2757ZM20.275 26.4905C15.5933 27.745 10.764 24.9567 9.50948 20.2751C8.25501 15.5935 11.0433 10.764 15.7249 9.50955C20.4066 8.25508 25.236 11.0434 26.4904 15.725C27.7449 20.4066 24.9567 25.2361 20.275 26.4905Z" fill="white"/>
<path d="M16.2786 11.5756C12.7362 12.5248 10.6265 16.179 11.5756 19.7214C12.5248 23.2638 16.179 25.3735 19.7214 24.4244C23.2638 23.4752 25.3735 19.821 24.4244 16.2786C23.4752 12.7362 19.821 10.6265 16.2786 11.5756ZM18.891 21.3251C17.0575 21.8164 15.1661 20.7245 14.6749 18.891C14.1836 17.0575 15.2755 15.1661 17.109 14.6749C18.9425 14.1836 20.8339 15.2755 21.3251 17.109C21.8165 18.9425 20.7245 20.8339 18.891 21.3251Z" fill="white"/>
</g>
<defs>
<clipPath id="clip0_1_774">
<rect width="36" height="36" fill="white"/>
</clipPath>
</defs>
</svg>
