<svg width="36" height="36" viewBox="0 0 36 36" fill="none" xmlns="http://www.w3.org/2000/svg">
<g clip-path="url(#clip0_1_783)">
<path d="M20.9628 9.60926C16.5989 8.69442 13.1879 5.28349 12.2732 0.919477C12.1609 0.383766 11.6884 0 11.1409 0C10.5933 0 10.1208 0.383766 10.0086 0.919547C9.09378 5.28349 5.68286 8.69435 1.31891 9.60905C0.783128 9.72134 0.399292 10.1939 0.399292 10.7414C0.399292 11.2888 0.783058 11.7614 1.31891 11.8737C5.68278 12.7885 9.09357 16.1994 10.0083 20.5633C10.1206 21.0991 10.5931 21.4829 11.1407 21.4829C11.6881 21.4829 12.1607 21.0992 12.273 20.5633C13.1878 16.1994 16.5988 12.7885 20.9627 11.8739C21.4985 11.7616 21.8824 11.2891 21.8824 10.7416C21.8823 10.1941 21.4985 9.72155 20.9628 9.60926Z" fill="white"/>
<path d="M19.0502 28.7215C16.9942 28.2906 15.3871 26.6835 14.956 24.6273C14.8437 24.0915 14.3712 23.7076 13.8237 23.7076C13.2763 23.7076 12.8037 24.0913 12.6914 24.6272C12.2603 26.6833 10.6532 28.2904 8.59711 28.7214C8.06133 28.8337 7.67749 29.3063 7.67749 29.8537C7.67749 30.4012 8.06126 30.8738 8.59711 30.9861C10.6531 31.4171 12.2602 33.0242 12.6913 35.0804C12.8035 35.6161 13.276 36 13.8236 36C14.371 36 14.8436 35.6163 14.9559 35.0804C15.387 33.0242 16.9941 31.4171 19.0502 30.9861C19.586 30.8738 19.9699 30.4013 19.9699 29.8538C19.9699 29.3064 19.5861 28.8339 19.0502 28.7215Z" fill="white"/>
<path d="M34.6813 18.0096C31.9021 17.427 29.7299 15.2548 29.1474 12.4756C29.0351 11.9399 28.5626 11.556 28.0151 11.556C27.4676 11.556 26.9951 11.9397 26.8828 12.4756C26.3002 15.2548 24.128 17.4269 21.3488 18.0095C20.813 18.1217 20.4292 18.5943 20.4292 19.1418C20.4292 19.6892 20.813 20.1617 21.3488 20.2741C24.1279 20.8567 26.3001 23.0289 26.8826 25.808C26.9949 26.3438 27.4674 26.7277 28.0149 26.7277C28.5624 26.7277 29.035 26.344 29.1472 25.808C29.7299 23.0289 31.9021 20.8567 34.6812 20.2742C35.217 20.1619 35.6008 19.6894 35.6008 19.1419C35.6008 18.5945 35.217 18.1219 34.6813 18.0096Z" fill="white"/>
</g>
<defs>
<clipPath id="clip0_1_783">
<rect width="36" height="36" fill="white"/>
</clipPath>
</defs>
</svg>
